<svg xmlns="http://www.w3.org/2000/svg" version="1.1" xmlns:xlink="http://www.w3.org/1999/xlink" xmlns:svgjs="http://svgjs.dev/svgjs" width="1000" height="383" viewBox="0 0 1000 383"><g transform="matrix(1,0,0,1,-0.6060606060606233,0.22489018044566933)"><svg viewBox="0 0 396 152" data-background-color="#ffffff" preserveAspectRatio="xMidYMid meet" height="383" width="1000" xmlns="http://www.w3.org/2000/svg" xmlns:xlink="http://www.w3.org/1999/xlink"><g id="tight-bounds" transform="matrix(1,0,0,1,0.2400000000000091,-0.08925145542491464)"><svg viewBox="0 0 395.52 152.17850291084983" height="152.17850291084983" width="395.52"><g><svg viewBox="0 0 642.4859104920865 247.2" height="152.17850291084983" width="395.52"><g><svg viewBox="0 0 380.0255395683454 247.2" height="247.2" width="380.0255395683454"><g><svg viewBox="0 0 380.0255395683454 247.2" height="247.2" width="380.0255395683454"><g><svg viewBox="0 0 380.0255395683454 247.2" height="247.2" width="380.0255395683454"><g transform="matrix(1,0,0,1,0,0)"><svg width="380.0255395683454" viewBox="1.5000000000000027 -39.2 170.95 95.35000000000001" height="247.2" data-palette-color="#8399cc"><svg></svg><svg></svg><g class="undefined-text-0" data-fill-palette-color="primary" id="text-0"><path d="M45.65-0.5v0c-1.233 0.567-2.573 0.85-4.02 0.85-1.453 0-2.597-0.377-3.43-1.13-0.833-0.747-1.3-2.07-1.4-3.97v0l-1.4-25.3-8.75 27.75c-0.5 1.533-1.567 2.3-3.2 2.3v0c-0.933-0.033-1.583-0.233-1.95-0.6-0.367-0.367-0.667-0.95-0.9-1.75v0l-9.05-27.75-1.45 25.2c-0.133 1.867-0.51 3.24-1.13 4.12-0.613 0.887-1.703 1.33-3.27 1.33-1.567 0-2.967-0.65-4.2-1.95v0c0.967-0.9 1.5-2.233 1.6-4v0l2-25.55c0-0.2 0-0.417 0-0.65v0c0-1.567-0.333-2.817-1-3.75v0c2.4-1.3 4.967-1.95 7.7-1.95 2.733 0 4.657 0.65 5.77 1.95 1.12 1.3 2.097 3.5 2.93 6.6v0l4 14.35 3.9-14.1c0.967-3.5 2.193-5.84 3.68-7.02 1.48-1.187 3.413-1.78 5.8-1.78 2.38 0 4.42 0.367 6.12 1.1v0c-0.6 1-0.9 2.233-0.9 3.7v0c0 0.3 0.017 0.633 0.05 1v0l1.5 25.9c0.067 2.333 0.4 4.033 1 5.1zM56.65-39.2c1.3 0 2.377 0.393 3.23 1.18 0.847 0.78 1.27 1.81 1.27 3.09 0 1.287-0.543 2.463-1.63 3.53-1.08 1.067-2.32 1.6-3.72 1.6-1.4 0-2.527-0.41-3.38-1.23-0.847-0.813-1.27-1.887-1.27-3.22 0-1.333 0.59-2.493 1.77-3.48 1.187-0.98 2.43-1.47 3.73-1.47zM60.25-20.75v0 15.6c0 1.8 0.55 2.983 1.65 3.55v0c-1.267 1.433-2.8 2.15-4.6 2.15v0c-3.267 0-4.9-1.983-4.9-5.95v0-15.65c0-1.733-0.567-2.9-1.7-3.5v0c1.267-1.433 2.777-2.15 4.53-2.15 1.747 0 3.02 0.483 3.82 1.45 0.8 0.967 1.2 2.467 1.2 4.5zM92.05-17.7v0 12.55c0 1.8 0.533 2.983 1.6 3.55v0c-1.2 1.433-2.717 2.15-4.55 2.15v0c-3.267 0-4.9-1.983-4.9-5.95v0-11.15c0-1.2-0.29-2.143-0.87-2.83-0.587-0.68-1.413-1.02-2.48-1.02-1.067 0-2.1 0.49-3.1 1.47-1 0.987-1.717 2.447-2.15 4.38v0 9.4c0 1.8 0.55 2.983 1.65 3.55v0c-1.267 1.433-2.8 2.15-4.6 2.15v0c-3.267 0-4.9-1.983-4.9-5.95v0-15.65c0-1.733-0.567-2.9-1.7-3.5v0c1.267-1.433 2.75-2.15 4.45-2.15 1.7 0 2.95 0.423 3.75 1.27 0.8 0.853 1.25 2.163 1.35 3.93v0c0.9-1.7 2.143-2.993 3.73-3.88 1.58-0.88 3.413-1.32 5.5-1.32 2.08 0 3.803 0.767 5.17 2.3 1.367 1.533 2.05 3.767 2.05 6.7zM107.4-20.75v0 25.25c0 3.033-0.657 5.277-1.97 6.73-1.32 1.447-3.013 2.17-5.08 2.17v0c-3.167 0-5.2-1.5-6.1-4.5v0c2.067 0 3.467-0.433 4.2-1.3 0.733-0.867 1.1-2.333 1.1-4.4v0-24.25c0-1.733-0.567-2.917-1.7-3.55v0c1.267-1.4 2.777-2.1 4.53-2.1 1.747 0 3.02 0.483 3.82 1.45 0.8 0.967 1.2 2.467 1.2 4.5zM103.8-39.2c1.3 0 2.377 0.393 3.23 1.18 0.847 0.78 1.27 1.81 1.27 3.09 0 1.287-0.54 2.463-1.62 3.53-1.087 1.067-2.33 1.6-3.73 1.6-1.4 0-2.523-0.41-3.37-1.23-0.853-0.813-1.28-1.887-1.28-3.22 0-1.333 0.593-2.493 1.78-3.48 1.18-0.98 2.42-1.47 3.72-1.47zM139.05-20.75v0 15.6c0 1.8 0.533 2.983 1.6 3.55v0c-1.2 1.433-2.717 2.15-4.55 2.15v0c-2.7 0-4.283-1.35-4.75-4.05v0c-1.7 2.7-4.057 4.05-7.07 4.05-3.02 0-5.363-0.767-7.03-2.3-1.667-1.533-2.5-3.767-2.5-6.7v0-12.6c0-1.733-0.567-2.9-1.7-3.5v0c1.267-1.433 2.777-2.15 4.53-2.15 1.747 0 3.02 0.483 3.82 1.45 0.8 0.967 1.2 2.467 1.2 4.5v0 11.5c0 2.567 1.3 3.85 3.9 3.85v0c2.233 0 3.8-1.267 4.7-3.8v0-11.85c0-1.733-0.567-2.9-1.7-3.5v0c1.267-1.433 2.777-2.15 4.53-2.15 1.747 0 3.02 0.483 3.82 1.45 0.8 0.967 1.2 2.467 1.2 4.5zM170.85-17.7v0 12.55c0 1.8 0.533 2.983 1.6 3.55v0c-1.2 1.433-2.717 2.15-4.55 2.15v0c-3.267 0-4.9-1.983-4.9-5.95v0-11.15c0-1.2-0.29-2.143-0.87-2.83-0.587-0.68-1.413-1.02-2.48-1.02-1.067 0-2.1 0.49-3.1 1.47-1 0.987-1.717 2.447-2.15 4.38v0 9.4c0 1.8 0.55 2.983 1.65 3.55v0c-1.267 1.433-2.8 2.15-4.6 2.15v0c-3.267 0-4.9-1.983-4.9-5.95v0-15.65c0-1.733-0.567-2.9-1.7-3.5v0c1.267-1.433 2.75-2.15 4.45-2.15 1.7 0 2.95 0.423 3.75 1.27 0.8 0.853 1.25 2.163 1.35 3.93v0c0.9-1.7 2.143-2.993 3.73-3.88 1.58-0.88 3.413-1.32 5.5-1.32 2.08 0 3.803 0.767 5.17 2.3 1.367 1.533 2.05 3.767 2.05 6.7z" fill="#8399cc" fill-rule="nonzero" stroke="none" stroke-width="1" stroke-linecap="butt" stroke-linejoin="miter" stroke-miterlimit="10" stroke-dasharray="" stroke-dashoffset="0" font-family="none" font-weight="none" font-size="none" text-anchor="none" style="mix-blend-mode: normal" data-fill-palette-color="primary" opacity="1"></path><path transform="translate(0,55.6)" d="M14.65-32.15v0h-2.85v14.45h2.85c2.3 0 4.077-0.66 5.33-1.98 1.247-1.313 1.87-3.08 1.87-5.3 0-2.213-0.623-3.963-1.87-5.25-1.253-1.28-3.03-1.92-5.33-1.92zM6.8-36.8v0h9.35c0.1 0 0.2 0 0.3 0v0c5.5 0 9.583 1.7 12.25 5.1v0c1.467 1.867 2.2 4.117 2.2 6.75 0 2.633-0.733 4.867-2.2 6.7v0c-2.7 3.433-6.883 5.15-12.55 5.15v0h-4.4v7.95c0 1.8 0.55 2.983 1.65 3.55v0c-1.267 1.433-2.8 2.15-4.6 2.15v0c-3.267 0-4.9-1.983-4.9-5.95v0-25.75c0-1.7-0.567-2.85-1.7-3.45v0c1.233-1.467 2.767-2.2 4.6-2.2zM42-6.85v0c0 1.633 0.933 2.45 2.8 2.45v0c1.367 0 2.6-0.633 3.7-1.9v0-4.85c-4.333 0.233-6.5 1.667-6.5 4.3zM56.35-17.7v0 11.35c0 2.1 0.9 3.433 2.7 4v0c-0.6 0.833-1.407 1.523-2.42 2.07-1.02 0.553-2.097 0.83-3.23 0.83v0c-2.467 0-4-1.1-4.6-3.3v0c-2.067 2.2-4.65 3.3-7.75 3.3v0c-2.3 0-4.133-0.567-5.5-1.7-1.367-1.133-2.05-2.733-2.05-4.8v0c0-2.533 1.327-4.56 3.98-6.08 2.647-1.513 6.32-2.303 11.02-2.37v0-4.75c0-2.233-0.9-3.35-2.7-3.35v0c-0.733 0-1.34 0.223-1.82 0.67-0.487 0.453-0.73 1.053-0.73 1.8 0 0.753 0.267 1.447 0.8 2.08v0c-1.133 1.2-2.56 1.8-4.28 1.8-1.713 0-2.977-0.383-3.79-1.15-0.82-0.767-1.23-1.767-1.23-3v0c0-1.867 1.14-3.4 3.42-4.6 2.287-1.2 4.953-1.8 8-1.8 3.053 0 5.513 0.717 7.38 2.15 1.867 1.433 2.8 3.717 2.8 6.85zM63.85-5.4v0-15.65c0-1.733-0.567-2.9-1.7-3.5v0c1.267-1.433 2.8-2.15 4.6-2.15v0c2.967 0 4.6 1.6 4.9 4.8v0c1.333-3.2 3.55-4.8 6.65-4.8v0c1.567 0 2.86 0.467 3.88 1.4 1.013 0.933 1.52 2.183 1.52 3.75 0 1.567-0.39 2.81-1.17 3.73-0.787 0.913-1.98 1.37-3.58 1.37v0c-0.2 0-0.633-0.033-1.3-0.1v0c0.133-0.6 0.2-0.983 0.2-1.15v0c0-0.833-0.24-1.493-0.72-1.98-0.487-0.48-1.08-0.72-1.78-0.72v0c-1.8 0-3.017 1.367-3.65 4.1v0 11.15c0 1.8 0.55 2.983 1.65 3.55v0c-1.267 1.433-2.8 2.15-4.6 2.15v0c-3.267 0-4.9-1.983-4.9-5.95zM96.35-33.25v0 16.85c6.2-2.9 9.3-6.333 9.3-10.3v0c2.233 0 4.033 0.45 5.4 1.35 1.367 0.9 2.05 2.157 2.05 3.77 0 1.62-0.907 3.047-2.72 4.28-1.82 1.233-4.68 2.433-8.58 3.6v0c3.233 3.267 5.633 5.35 7.2 6.25 1.567 0.9 3.317 1.35 5.25 1.35v0c0 2.1-0.5 3.733-1.5 4.9-1 1.167-2.383 1.75-4.15 1.75-1.767 0-3.573-0.893-5.42-2.68-1.853-1.78-4.13-4.853-6.83-9.22v0 6.2c0 1.8 0.55 2.983 1.65 3.55v0c-1.267 1.433-2.8 2.15-4.6 2.15v0c-3.267 0-4.9-1.983-4.9-5.95v0-28.15c0-1.667-0.567-2.85-1.7-3.55v0c1.267-1.4 2.8-2.1 4.6-2.1v0c3.3 0 4.95 1.983 4.95 5.95z" fill="#8399cc" fill-rule="nonzero" stroke="none" stroke-width="1" stroke-linecap="butt" stroke-linejoin="miter" stroke-miterlimit="10" stroke-dasharray="" stroke-dashoffset="0" font-family="none" font-weight="none" font-size="none" text-anchor="none" style="mix-blend-mode: normal" data-fill-palette-color="primary" opacity="1"></path></g></svg></g></svg></g></svg></g></svg></g><g transform="matrix(1,0,0,1,407.63012703884897,8.843985880539634)"><svg viewBox="0 0 234.85578345323748 229.51202823892072" height="229.51202823892072" width="234.85578345323748"><g><svg xmlns="http://www.w3.org/2000/svg" xmlns:xlink="http://www.w3.org/1999/xlink" version="1.1" x="0" y="0" viewBox="4.000085497435469 5.013332686502011 91.05855408469914 88.98666717587562" enable-background="new 0 0 100 100" xml:space="preserve" height="229.51202823892072" width="234.85578345323748" class="icon-icon-0" data-fill-palette-color="accent" id="icon-0"><g fill="#8399cc" data-fill-palette-color="accent"><circle cx="55.538" cy="19.677" r="4.9" fill="#8399cc" data-fill-palette-color="accent"></circle></g><g fill="#8399cc" data-fill-palette-color="accent"><circle cx="23.472" cy="42.596" r="4.9" fill="#8399cc" data-fill-palette-color="accent"></circle></g><g fill="#8399cc" data-fill-palette-color="accent"><circle cx="45.736" cy="65.145" r="4.9" fill="#8399cc" data-fill-palette-color="accent"></circle></g><g fill="#8399cc" data-fill-palette-color="accent"><circle cx="12.968" cy="82.662" r="4.9" fill="#8399cc" data-fill-palette-color="accent"></circle></g><g fill="#8399cc" data-fill-palette-color="accent"><circle cx="81.493" cy="25.552" r="4.9" fill="#8399cc" data-fill-palette-color="accent"></circle></g><g fill="#8399cc" data-fill-palette-color="accent"><circle cx="47.69" cy="89.1" r="4.9" fill="#8399cc" data-fill-palette-color="accent"></circle></g><g fill="#8399cc" data-fill-palette-color="accent"><path d="M12.968 83.811c-0.145 0-0.287-0.027-0.419-0.078-0.101-0.041-0.197-0.094-0.285-0.162-0.15-0.117-0.273-0.273-0.353-0.457-0.02-0.047-0.037-0.096-0.05-0.143L4.046 56.078c-0.136-0.471 0.039-0.975 0.438-1.258l51.203-36.386c0.455-0.323 1.075-0.273 1.473 0.117s0.457 1.01 0.143 1.47L16.579 79.428l28.615-15.297c0.166-0.088 0.353-0.135 0.542-0.135h46.606L80.492 26.358 58.655 7.024c-0.475-0.421-0.52-1.147-0.098-1.623 0.42-0.475 1.147-0.52 1.622-0.099l22.075 19.545c0.156 0.139 0.272 0.317 0.335 0.516l12.417 39.437c0.109 0.348 0.047 0.729-0.17 1.023-0.217 0.297-0.561 0.471-0.927 0.471H46.024L13.532 83.664c-0.051 0.027-0.104 0.053-0.159 0.074-0.069 0.025-0.141 0.045-0.212 0.057C13.097 83.807 13.032 83.811 12.968 83.811zM6.482 56.221l6.912 23.785 38.356-55.953L6.482 56.221z" fill="#8399cc" data-fill-palette-color="accent"></path></g><g fill="#8399cc" data-fill-palette-color="accent"><path d="M45.737 66.295c-0.077 0-0.155-0.008-0.233-0.023l0 0c-0.001 0-0.002 0-0.002 0-0.017-0.004-0.032-0.008-0.047-0.012l0 0c-0.003 0-0.004 0-0.006-0.002l0 0c-0.213-0.055-0.396-0.164-0.539-0.312L10.716 31.75 6.281 55.965c-0.114 0.625-0.714 1.037-1.338 0.924-0.625-0.115-1.038-0.715-0.924-1.338l4.829-26.37c0.076-0.42 0.381-0.763 0.788-0.891 0.408-0.127 0.854-0.018 1.155 0.285l34.292 34.292 9.896-42.656-28.495-7.184c-0.526-0.132-0.888-0.614-0.868-1.156s0.416-0.997 0.949-1.091l32.653-5.749c0.38-0.067 0.769 0.062 1.033 0.341 0.266 0.28 0.373 0.675 0.286 1.051l-2.81 12.109 24.046 6.062c0.391 0.099 0.702 0.396 0.819 0.782 0.116 0.386 0.022 0.806-0.249 1.105L46.603 65.9c-0.065 0.076-0.141 0.143-0.224 0.197 0 0.002-0.001 0.002-0.001 0.002-0.001 0-0.001 0-0.002 0l-0.001 0.002c-0.001 0-0.001 0-0.001 0-0.017 0.012-0.032 0.021-0.049 0.031-0.001 0-0.001 0-0.001 0-0.001 0-0.001 0-0.002 0.002h-0.001c-0.001 0-0.001 0-0.001 0C46.146 66.238 45.945 66.295 45.737 66.295zM57.209 20.773l-9.354 40.323 31.499-34.74L57.209 20.773zM32.262 12.112l23.237 5.858 2.406-10.373L32.262 12.112z" fill="#8399cc" data-fill-palette-color="accent"></path></g><g fill="#8399cc" data-fill-palette-color="accent"><path d="M47.69 90.25c-0.069 0-0.14-0.006-0.21-0.02l-34.722-6.439c-0.624-0.115-1.036-0.715-0.921-1.34 0.116-0.623 0.717-1.037 1.34-0.92l33.245 6.164-1.82-22.307-18.92-53.09c-0.214-0.598 0.099-1.256 0.697-1.469 0.598-0.213 1.255 0.099 1.469 0.697L46.819 64.76c0.033 0.094 0.055 0.191 0.062 0.293l1.955 23.953c0.028 0.357-0.11 0.707-0.376 0.947C48.248 90.145 47.973 90.25 47.69 90.25z" fill="#8399cc" data-fill-palette-color="accent"></path></g><g fill="#8399cc" data-fill-palette-color="accent"><path d="M47.689 90.25c-0.183 0-0.367-0.043-0.54-0.135-0.561-0.301-0.772-0.996-0.474-1.557l33.803-63.391c0.299-0.56 0.995-0.772 1.556-0.474 0.56 0.299 0.771 0.996 0.474 1.556L48.705 89.641C48.498 90.029 48.101 90.25 47.689 90.25z" fill="#8399cc" data-fill-palette-color="accent"></path></g></svg></g></svg></g></svg></g><defs></defs></svg><rect width="395.52" height="152.17850291084983" fill="none" stroke="none" visibility="hidden"></rect></g></svg></g></svg>